SplineFontDB: 3.2
FontName: Guitar
FullName: Guitar
FamilyName: Guitar
Weight: Book
Copyright: Copyright (c) 2019, Seo Yeon (Rachel) Kwak
Version: 001.000
ItalicAngle: 0
UnderlinePosition: -100
UnderlineWidth: 50
Ascent: 800
Descent: 200
InvalidEm: 0
sfntRevision: 0x00010000
LayerCount: 2
Layer: 0 1 "Back" 1
Layer: 1 1 "Fore" 0
XUID: [1021 45 1052484019 857064]
StyleMap: 0x0000
FSType: 0
OS2Version: 4
OS2_WeightWidthSlopeOnly: 0
OS2_UseTypoMetrics: 1
CreationTime: 1571848729
ModificationTime: 1571874253
PfmFamily: 17
TTFWeight: 400
TTFWidth: 5
LineGap: 90
VLineGap: 0
Panose: 2 0 5 3 0 0 0 0 0 0
OS2TypoAscent: 800
OS2TypoAOffset: 0
OS2TypoDescent: -200
OS2TypoDOffset: 0
OS2TypoLinegap: 90
OS2WinAscent: 830
OS2WinAOffset: 0
OS2WinDescent: 207
OS2WinDOffset: 0
HheadAscent: 830
HheadAOffset: 0
HheadDescent: -207
HheadDOffset: 0
OS2SubXSize: 650
OS2SubYSize: 700
OS2SubXOff: 0
OS2SubYOff: 140
OS2SupXSize: 650
OS2SupYSize: 700
OS2SupXOff: 0
OS2SupYOff: 480
OS2StrikeYSize: 49
OS2StrikeYPos: 258
OS2CapHeight: 801
OS2Vendor: 'PfEd'
OS2CodePages: 00000001.00000000
OS2UnicodeRanges: 00000001.00000000.00000000.00000000
MarkAttachClasses: 1
DEI: 91125
ShortTable: cvt  2
  33
  633
EndShort
ShortTable: maxp 16
  1
  0
  29
  42
  3
  0
  0
  2
  0
  1
  1
  0
  64
  46
  0
  0
EndShort
LangName: 1033 "" "" "Regular" "FontForge 2.0 : Guitar : 23-10-2019"
GaspTable: 1 65535 2 0
Encoding: UnicodeBmp
UnicodeInterp: none
NameList: AGL For New Fonts
DisplaySize: -48
AntiAlias: 1
FitToEm: 0
WinInfo: 64 16 4
BeginChars: 65539 55

StartChar: .notdef
Encoding: 65536 -1 0
Width: 364
Flags: W
LayerCount: 2
Fore
SplineSet
33 0 m 1,0,-1
 33 666 l 1,1,-1
 298 666 l 1,2,-1
 298 0 l 1,3,-1
 33 0 l 1,0,-1
66 33 m 1,4,-1
 265 33 l 1,5,-1
 265 633 l 1,6,-1
 66 633 l 1,7,-1
 66 33 l 1,4,-1
EndSplineSet
Validated: 1
EndChar

StartChar: A
Encoding: 65 65 3
Width: 1080
Flags: W
LayerCount: 2
Fore
SplineSet
229 193 m 1,0,-1
 51 -187 l 2,1,2
 45 -200 45 -200 31 -200 c 0,3,4
 26 -200 26 -200 22 -198 c 0,5,6
 9 -192 9 -192 9 -178 c 0,7,8
 9 -173 9 -173 11 -169 c 2,9,-1
 11 -168 l 1,10,-1
 174 160 l 1,11,-1
 71 98 l 1,12,-1
 180 173 l 1,13,-1
 480 779 l 1,14,-1
 491 801 l 1,15,-1
 500 779 l 1,16,-1
 632 482 l 1,17,-1
 669 506 l 2,18,19
 674 510 674 510 681 510 c 0,20,21
 690 510 690 510 696.5 503.5 c 128,-1,22
 703 497 703 497 703 488 c 0,23,24
 703 476 703 476 693 469 c 1,25,-1
 692 469 l 1,26,-1
 649 443 l 1,27,-1
 930 -188 l 1,28,-1
 637 436 l 1,29,-1
 229 193 l 1,0,-1
239 213 m 1,30,-1
 619 473 l 1,31,-1
 490 748 l 1,32,-1
 239 213 l 1,30,-1
EndSplineSet
Validated: 1
EndChar

StartChar: B
Encoding: 66 66 4
Width: 812
Flags: W
LayerCount: 2
Fore
SplineSet
308 90 m 1,0,-1
 639 377 l 1,1,-1
 677 412 l 1,2,-1
 658 362 l 1,3,-1
 435 -186 l 2,4,5
 430 -196 430 -196 420 -196 c 0,6,7
 416 -196 416 -196 412 -193.5 c 128,-1,8
 408 -191 408 -191 406 -187.5 c 128,-1,9
 404 -184 404 -184 404 -179 c 0,10,11
 404 -177 404 -177 405 -174 c 2,12,-1
 404 -173 l 1,13,-1
 410 -158 l 1,14,-1
 293 53 l 1,15,-1
 273 37 l 1,16,-1
 281 66 l 1,17,-1
 283 72 l 1,18,-1
 26 535 l 1,19,-1
 -81 475 l 1,20,-1
 26 536 l 1,21,-1
 9 566 l 2,22,23
 7 569 7 569 7 574 c 0,24,25
 7 583 7 583 16 588 c 0,26,27
 19 590 19 590 24 590 c 0,28,29
 33 590 33 590 38 582 c 1,30,-1
 38 581 l 1,31,-1
 53 552 l 1,32,-1
 487 799 l 1,33,-1
 496 804 l 1,34,-1
 493 794 l 1,35,-1
 308 90 l 1,0,-1
481 786 m 1,36,-1
 54 550 l 1,37,-1
 287 87 l 1,38,-1
 481 786 l 1,36,-1
614 324 m 1,39,-1
 301 60 l 1,40,-1
 411 -157 l 1,41,-1
 614 324 l 1,39,-1
EndSplineSet
Validated: 1
EndChar

StartChar: C
Encoding: 67 67 5
Width: 1204
Flags: W
LayerCount: 2
Fore
SplineSet
45 801 m 1,0,-1
 537 432 l 1,1,-1
 54 746 l 1,2,-1
 100 -164 l 1,3,-1
 1042 464 l 1,4,-1
 96 -193 l 2,5,6
 93 -195 93 -195 90 -195 c 0,7,8
 84 -195 84 -195 81 -190 c 0,9,10
 79 -188 79 -188 79 -185 c 2,11,12
 79 -185 79 -185 12 781 c 0,13,14
 11 783 11 783 11 786 c 0,15,16
 11 794 11 794 17 800 c 128,-1,17
 23 806 23 806 31 806 c 0,18,19
 38 806 38 806 44 802 c 2,20,-1
 45 801 l 1,0,-1
EndSplineSet
Validated: 1
EndChar

StartChar: D
Encoding: 68 68 6
Width: 926
Flags: W
LayerCount: 2
Fore
SplineSet
46 746 m 1,0,-1
 51 -200 l 1,1,-1
 4 778 l 2,2,3
 4 779 4 779 4 779 c 2,4,5
 4 788 4 788 10 794 c 128,-1,6
 16 800 16 800 25 800 c 0,7,8
 31 800 31 800 36 796 c 2,9,-1
 786 435 l 2,10,11
 793 432 793 432 793 425 c 0,12,13
 793 423 793 423 792 420.5 c 128,-1,14
 791 418 791 418 789 417 c 2,15,-1
 51 -201 l 1,16,-1
 761 424 l 1,17,-1
 46 746 l 1,0,-1
EndSplineSet
Validated: 1
EndChar

StartChar: E
Encoding: 69 69 7
Width: 1156
Flags: W
LayerCount: 2
Fore
SplineSet
14 769 m 2,0,1
 12 773 12 773 12 778 c 0,2,3
 12 787 12 787 18.5 793.5 c 128,-1,4
 25 800 25 800 35 800 c 0,5,6
 41 800 41 800 46 797 c 2,7,-1
 611 435 l 1,8,-1
 61 738 l 1,9,-1
 88 444 l 1,10,-1
 570 122 l 1,11,-1
 93 393 l 1,12,-1
 145 -174 l 1,13,-1
 1006 133 l 1,14,-1
 139 -201 l 2,15,16
 137 -202 137 -202 135 -202 c 0,17,18
 128 -202 128 -202 125 -195 c 0,19,20
 125 -194 125 -194 125 -193.5 c 128,-1,21
 125 -193 125 -193 125 -193 c 1,22,-1
 55 414 l 1,23,-1
 26 431 l 2,24,25
 15 437 15 437 15 450 c 0,26,27
 15 456 15 456 18 462 c 0,28,29
 24 473 24 473 37 473 c 0,30,31
 43 473 43 473 48 470 c 0,32,33
 49 469 49 469 49 469 c 1,34,-1
 14 769 l 2,0,1
EndSplineSet
Validated: 1
EndChar

StartChar: F
Encoding: 70 70 8
Width: 730
Flags: W
LayerCount: 2
Fore
SplineSet
56 737 m 1,0,-1
 612 431 l 1,1,-1
 42 797 l 1,2,-1
 41 797 l 2,3,4
 36 800 36 800 30 800 c 0,5,6
 21 800 21 800 15 794 c 0,7,8
 12 791 12 791 10 788 c 0,9,10
 7 783 7 783 7 777 c 0,11,12
 7 774 7 774 8 770 c 2,13,-1
 47 465 l 1,14,-1
 45 466 l 1,15,-1
 44 466 l 2,16,17
 39 469 39 469 33 469 c 0,18,19
 20 469 20 469 14 458 c 0,20,21
 11 452 11 452 11 447 c 0,22,23
 11 434 11 434 22 427 c 2,24,-1
 54 409 l 1,25,-1
 131 -200 l 1,26,-1
 84 392 l 1,27,-1
 571 114 l 1,28,-1
 80 443 l 1,29,-1
 56 737 l 1,0,-1
EndSplineSet
Validated: 9
EndChar

StartChar: G
Encoding: 71 71 9
Width: 1240
Flags: W
LayerCount: 2
Fore
SplineSet
1016 421 m 1,0,-1
 343 142 l 1,1,-1
 1060 450 l 1,2,-1
 1062 452 l 1,3,-1
 1062 451 l 1,4,-1
 1063 452 l 2,5,6
 1064 452 1064 452 1065 452 c 0,7,8
 1068 452 1068 452 1070 449 c 0,9,10
 1070 448 1070 448 1070 447 c 0,11,12
 1070 444 1070 444 1068 442 c 2,13,-1
 139 -198 l 2,14,15
 136 -200 136 -200 132 -200 c 0,16,17
 125 -200 125 -200 121 -194 c 0,18,19
 119 -192 119 -192 119 -188 c 2,20,-1
 10 774 l 2,21,22
 9 777 9 777 9 780 c 0,23,24
 9 788 9 788 15 794 c 128,-1,25
 21 800 21 800 29 800 c 0,26,27
 35 800 35 800 40 796 c 2,28,-1
 523 417 l 1,29,-1
 54 739 l 1,30,-1
 143 -164 l 1,31,-1
 1016 421 l 1,0,-1
EndSplineSet
Validated: 1
EndChar

StartChar: H
Encoding: 72 72 10
Width: 824
Flags: W
LayerCount: 2
Fore
SplineSet
594 408 m 1,0,-1
 34 122 l 1,1,-1
 27 -200 l 1,2,-1
 19 115 l 1,3,-1
 -154 26 l 1,4,-1
 19 125 l 1,5,-1
 2 777 l 2,6,7
 2 786 2 786 8.5 793 c 128,-1,8
 15 800 15 800 24.5 800 c 128,-1,9
 34 800 34 800 40.5 793 c 128,-1,10
 47 786 47 786 47 777 c 2,11,-1
 34 134 l 1,12,-1
 593 454 l 1,13,-1
 585 777 l 2,14,15
 585 786 585 786 591.5 793 c 128,-1,16
 598 800 598 800 607.5 800 c 128,-1,17
 617 800 617 800 623.5 793 c 128,-1,18
 630 786 630 786 630 777 c 2,19,-1
 623 471 l 1,20,-1
 649 486 l 2,21,22
 654 489 654 489 660 489 c 0,23,24
 670 489 670 489 676.5 482.5 c 128,-1,25
 683 476 683 476 683 467 c 0,26,27
 683 454 683 454 672 447 c 1,28,-1
 670 447 l 1,29,-1
 622 423 l 1,30,-1
 610 -200 l 1,31,-1
 594 408 l 1,0,-1
EndSplineSet
Validated: 1
EndChar

StartChar: I
Encoding: 73 73 11
Width: 774
Flags: W
LayerCount: 2
Fore
SplineSet
335 30 m 1,0,-1
 331 -128 l 1,1,-1
 327 37 l 1,2,-1
 12 292 l 2,3,4
 6 298 6 298 6 306 c 0,5,6
 6 313 6 313 11 318 c 128,-1,7
 16 323 16 323 23 323 c 0,8,9
 29 323 29 323 34 319 c 1,10,-1
 35 319 l 1,11,-1
 326 59 l 1,12,-1
 314 532 l 1,13,-1
 28 769 l 2,14,15
 22 774 22 774 22 782 c 0,16,17
 22 787 22 787 24 791 c 128,-1,18
 26 795 26 795 30 797 c 128,-1,19
 34 799 34 799 39 799 c 0,20,21
 45 799 45 799 50 795 c 2,22,-1
 313 557 l 1,23,-1
 312 580 l 1,24,-1
 312 581 l 2,25,26
 312 588 312 588 317 593 c 128,-1,27
 322 598 322 598 330 598 c 0,28,29
 336 598 336 598 341 593 c 128,-1,30
 346 588 346 588 347 581 c 2,31,-1
 347 580 l 1,32,-1
 345 528 l 1,33,-1
 639 262 l 1,34,-1
 345 506 l 1,35,-1
 335 52 l 1,36,-1
 618 -200 l 1,37,-1
 335 30 l 1,0,-1
EndSplineSet
Validated: 1
EndChar

StartChar: J
Encoding: 74 74 12
Width: 900
Flags: W
LayerCount: 2
Fore
SplineSet
357 514 m 1,0,-1
 357 531 l 2,1,2
 357 541 357 541 363.5 547.5 c 128,-1,3
 370 554 370 554 379 554 c 128,-1,4
 388 554 388 554 395 547.5 c 128,-1,5
 402 541 402 541 402 531 c 2,6,-1
 401 474 l 1,7,-1
 768 144 l 1,8,-1
 401 445 l 1,9,-1
 391 -190 l 2,10,11
 391 -200 391 -200 381 -200 c 0,12,13
 378 -200 378 -200 375 -198 c 2,14,-1
 -44 151 l 1,15,-1
 371 -170 l 1,16,-1
 358 480 l 1,17,-1
 17 760 l 2,18,19
 8 767 8 767 8 778 c 0,20,21
 8 788 8 788 14.5 794.5 c 128,-1,22
 21 801 21 801 30 801 c 256,23,24
 39 801 39 801 46 795 c 1,25,-1
 46 794 l 1,26,-1
 357 514 l 1,0,-1
EndSplineSet
Validated: 1
EndChar

StartChar: K
Encoding: 75 75 13
Width: 894
Flags: W
LayerCount: 2
Fore
SplineSet
40 485 m 1,0,-1
 540 796 l 2,1,2
 546 800 546 800 552 800 c 0,3,4
 561 800 561 800 568 793.5 c 128,-1,5
 575 787 575 787 575 777 c 0,6,7
 575 765 575 765 564 758 c 2,8,-1
 39 451 l 1,9,-1
 39 426 l 1,10,-1
 780 -200 l 1,11,-1
 38 393 l 1,12,-1
 24 -200 l 1,13,-1
 10 415 l 1,14,-1
 -11 432 l 2,15,16
 -16 436 -16 436 -16 443 c 0,17,18
 -16 447 -16 447 -13 451 c 0,19,20
 -12 453 -12 453 -10 454 c 2,21,-1
 9 466 l 1,22,-1
 2 776 l 2,23,24
 2 786 2 786 8.5 792.5 c 128,-1,25
 15 799 15 799 24.5 799 c 128,-1,26
 34 799 34 799 40.5 792.5 c 128,-1,27
 47 786 47 786 47 776 c 2,28,-1
 40 485 l 1,0,-1
EndSplineSet
Validated: 1
EndChar

StartChar: L
Encoding: 76 76 14
Width: 820
Flags: W
LayerCount: 2
Fore
SplineSet
50 -174 m 1,0,-1
 680 172 l 1,1,-1
 45 -199 l 2,2,3
 43 -200 43 -200 41 -200 c 0,4,5
 35 -200 35 -200 32 -195 c 0,6,7
 31 -193 31 -193 31 -191 c 2,8,-1
 6 777 l 2,9,10
 6 786 6 786 12.5 792.5 c 128,-1,11
 19 799 19 799 28.5 799 c 128,-1,12
 38 799 38 799 44.5 792.5 c 128,-1,13
 51 786 51 786 51 777 c 1,14,-1
 50 778 l 1,15,-1
 50 -174 l 1,0,-1
EndSplineSet
Validated: 1
EndChar

StartChar: M
Encoding: 77 77 15
Width: 872
Flags: W
LayerCount: 2
Fore
SplineSet
732 678 m 1,0,-1
 712 -200 l 1,1,-1
 693 643 l 1,2,-1
 387 72 l 2,3,4
 384 66 384 66 377 66 c 0,5,6
 374 66 374 66 372 68 c 0,7,8
 369 69 369 69 368 72 c 2,9,-1
 41 608 l 1,10,-1
 22 -199 l 1,11,-1
 2 676 l 2,12,13
 2 685 2 685 8 691 c 128,-1,14
 14 697 14 697 22 697 c 0,15,16
 34 697 34 697 39 687 c 1,17,-1
 40 687 l 1,18,-1
 377 101 l 1,19,-1
 692 653 l 1,20,-1
 692 678 l 2,21,22
 692 686 692 686 698 692 c 128,-1,23
 704 698 704 698 712 698 c 0,24,25
 715 698 715 698 718 697 c 2,26,-1
 777 801 l 1,27,-1
 721 696 l 1,28,29
 732 691 732 691 732 679 c 2,30,-1
 732 678 l 1,0,-1
EndSplineSet
Validated: 1
EndChar

StartChar: N
Encoding: 78 78 16
Width: 794
Flags: W
LayerCount: 2
Fore
SplineSet
4 764 m 2,0,1
 4 773 4 773 10.5 779 c 128,-1,2
 17 785 17 785 26 785 c 0,3,4
 40 785 40 785 46 772 c 2,5,-1
 619 -146 l 1,6,-1
 653 800 l 1,7,-1
 638 -180 l 2,8,9
 638 -190 638 -190 628 -190 c 0,10,11
 622 -190 622 -190 620 -185 c 2,12,-1
 45 694 l 1,13,-1
 11 -200 l 1,14,-1
 4 762 l 2,15,16
 4 763 4 763 4 763.5 c 128,-1,17
 4 764 4 764 4 764 c 2,0,1
EndSplineSet
Validated: 1
EndChar

StartChar: O
Encoding: 79 79 17
Width: 1194
Flags: W
LayerCount: 2
Fore
SplineSet
457 793 m 1,0,-1
 1025 157 l 1,1,-1
 448 741 l 1,2,-1
 38 -171 l 1,3,-1
 1022 157 l 1,4,-1
 21 -199 l 2,5,6
 19 -200 19 -200 17 -200 c 0,7,8
 10 -200 10 -200 7 -193 c 0,9,10
 6 -191 6 -191 6 -189 c 128,-1,11
 6 -187 6 -187 7 -185 c 2,12,-1
 419 786 l 2,13,14
 420 789 420 789 421 791 c 0,15,16
 428 801 428 801 440 801 c 0,17,18
 450 801 450 801 456 794 c 2,19,-1
 457 793 l 1,0,-1
EndSplineSet
Validated: 1
EndChar

StartChar: P
Encoding: 80 80 18
Width: 692
Flags: W
LayerCount: 2
Fore
SplineSet
10 594 m 0,0,1
 13 598 13 598 18 599 c 2,2,-1
 548 799 l 2,3,4
 550 800 550 800 552 800 c 0,5,6
 559 800 559 800 561 793 c 0,7,8
 562 792 562 792 562 790 c 0,9,10
 562 786 562 786 560 783 c 2,11,-1
 38 146 l 1,12,-1
 39 -200 l 1,13,-1
 25 130 l 1,14,-1
 -82 -1 l 1,15,-1
 25 135 l 1,16,-1
 6 578 l 2,17,18
 5 580 5 580 5 583 c 0,19,20
 5 589 5 589 10 594 c 0,0,1
38 573 m 1,21,-1
 38 152 l 1,22,-1
 520 766 l 1,23,-1
 38 573 l 1,21,-1
EndSplineSet
Validated: 1
EndChar

StartChar: Q
Encoding: 81 81 19
Width: 1044
Flags: W
LayerCount: 2
Fore
SplineSet
335 786 m 1,0,-1
 909 153 l 1,1,-1
 909 153 l 1,2,-1
 909 153 l 1,3,-1
 620 55 l 1,4,-1
 870 -200 l 1,5,-1
 592 46 l 1,6,-1
 15 -150 l 2,7,8
 14 -150 14 -150 12 -150 c 0,9,10
 5 -150 5 -150 3 -144 c 0,11,12
 2 -142 2 -142 2 -140.5 c 128,-1,13
 2 -139 2 -139 3 -137 c 2,14,-1
 293 778 l 2,15,16
 293 779 293 779 293 780 c 0,17,18
 293 792 293 792 303 798 c 0,19,20
 309 801 309 801 315 801 c 0,21,22
 331 801 331 801 335 786 c 1,0,-1
909 153 m 1,23,-1
 322 742 l 1,24,-1
 28 -125 l 1,25,-1
 586 51 l 1,26,-1
 446 175 l 2,27,28
 439 181 439 181 439 190 c 0,29,30
 439 196 439 196 441.5 200.5 c 128,-1,31
 444 205 444 205 449 208 c 128,-1,32
 454 211 454 211 459 211 c 0,33,34
 467 211 467 211 473 205 c 0,35,36
 474 205 474 205 474 204 c 2,37,-1
 615 60 l 1,38,-1
 909 153 l 1,23,-1
EndSplineSet
Validated: 5
EndChar

StartChar: R
Encoding: 82 82 20
Width: 700
Flags: W
LayerCount: 2
Fore
SplineSet
9 574 m 0,0,1
 12 585 12 585 23 586 c 2,2,-1
 547 800 l 2,3,4
 549 801 549 801 551 801 c 0,5,6
 559 801 559 801 562 793 c 0,7,8
 563 791 563 791 563 788 c 0,9,10
 563 783 563 783 559 779 c 2,11,-1
 32 322 l 1,12,-1
 31 305 l 1,13,-1
 624 -191 l 1,14,-1
 31 290 l 1,15,-1
 11 -200 l 1,16,-1
 10 307 l 1,17,-1
 8 308 l 2,18,19
 6 310 6 310 6 313 c 0,20,21
 6 315 6 315 7 317 c 2,22,-1
 9 318 l 1,23,-1
 9 567 l 2,24,25
 8 568 8 568 8 569 c 0,26,27
 8 572 8 572 9 574 c 0,0,1
41 558 m 1,28,-1
 33 339 l 1,29,-1
 489 748 l 1,30,-1
 41 558 l 1,28,-1
EndSplineSet
Validated: 1
EndChar

StartChar: S
Encoding: 83 83 21
Width: 746
Flags: W
LayerCount: 2
Fore
SplineSet
612 45 m 1,0,-1
 9 503 l 2,1,2
 4 507 4 507 4 513 c 0,3,4
 4 517 4 517 7 520 c 0,5,6
 8 522 8 522 10 523 c 2,7,-1
 428 797 l 2,8,9
 432 799 432 799 437 799 c 0,10,11
 446 799 446 799 451 792 c 0,12,13
 454 788 454 788 454 783 c 0,14,15
 454 774 454 774 446 769 c 2,16,-1
 37 511 l 1,17,-1
 623 48 l 2,18,19
 624 47 624 47 624 45 c 128,-1,20
 624 43 624 43 623 42 c 256,21,22
 622 41 622 41 621 40 c 2,23,-1
 178 -200 l 1,24,-1
 612 45 l 1,0,-1
EndSplineSet
Validated: 1
EndChar

StartChar: T
Encoding: 84 84 22
Width: 798
Flags: W
LayerCount: 2
Fore
SplineSet
311 565 m 1,0,-1
 310 577 l 2,1,2
 310 584 310 584 315.5 589 c 128,-1,3
 321 594 321 594 328 594 c 0,4,5
 332 594 332 594 336 591.5 c 128,-1,6
 340 589 340 589 342.5 585 c 128,-1,7
 345 581 345 581 345 577 c 2,8,-1
 345 576 l 1,9,-1
 344 537 l 1,10,-1
 669 261 l 1,11,-1
 343 515 l 1,12,-1
 320 -200 l 1,13,-1
 311 540 l 1,14,-1
 17 769 l 2,15,16
 10 774 10 774 10 783 c 0,17,18
 10 789 10 789 14 793 c 0,19,20
 19 800 19 800 27 800 c 0,21,22
 33 800 33 800 38 796 c 2,23,-1
 311 565 l 1,0,-1
EndSplineSet
Validated: 1
EndChar

StartChar: U
Encoding: 85 85 23
Width: 676
Flags: W
LayerCount: 2
Fore
SplineSet
531 66 m 1,0,-1
 25 -199 l 2,1,2
 23 -199 23 -199 21 -199 c 0,3,4
 17 -199 17 -199 14 -196 c 0,5,6
 14 -195 14 -195 14 -194 c 128,-1,7
 14 -193 14 -193 14 -192 c 2,8,-1
 5 540 l 2,9,10
 5 547 5 547 10 552 c 128,-1,11
 15 557 15 557 22 557 c 128,-1,12
 29 557 29 557 34 552 c 128,-1,13
 39 547 39 547 39 540 c 1,14,-1
 38 539 l 1,15,-1
 29 -180 l 1,16,-1
 531 67 l 1,17,-1
 508 782 l 2,18,19
 508 783 508 783 508 783 c 2,20,21
 508 790 508 790 513 795 c 128,-1,22
 518 800 518 800 526 800 c 0,23,24
 532 800 532 800 537 795 c 128,-1,25
 542 790 542 790 543 784 c 2,26,-1
 543 783 l 1,27,-1
 534 -8 l 1,28,-1
 531 66 l 1,0,-1
EndSplineSet
Validated: 1
EndChar

StartChar: V
Encoding: 86 86 24
Width: 1276
Flags: W
LayerCount: 2
Fore
SplineSet
558 -173 m 1,0,-1
 1129 830 l 1,1,-1
 568 -201 l 2,2,3
 565 -206 565 -206 558 -206 c 0,4,5
 556 -206 556 -206 553 -205 c 256,6,7
 550 -204 550 -204 549 -201 c 2,8,-1
 22 761 l 2,9,10
 19 766 19 766 19 772 c 0,11,12
 19 781 19 781 25.5 787.5 c 128,-1,13
 32 794 32 794 41 794 c 0,14,15
 54 794 54 794 60 783 c 1,16,-1
 60 782 l 1,17,-1
 558 -173 l 1,0,-1
EndSplineSet
Validated: 1
EndChar

StartChar: W
Encoding: 87 87 25
Width: 1294
Flags: W
LayerCount: 2
Fore
SplineSet
579 422 m 1,0,-1
 329 -190 l 2,1,2
 325 -199 325 -199 315 -199 c 0,3,4
 312 -199 312 -199 310 -198 c 0,5,6
 303 -195 303 -195 301 -189 c 2,7,-1
 8 737 l 2,8,9
 7 740 7 740 7 743 c 0,10,11
 7 752 7 752 13 758 c 128,-1,12
 19 764 19 764 28 764 c 0,13,14
 43 764 43 764 48 750 c 1,15,-1
 47 749 l 1,16,-1
 318 -141 l 1,17,-1
 569 453 l 2,18,19
 571 460 571 460 578 460 c 0,20,21
 580 460 580 460 582 459 c 0,22,23
 586 457 586 457 588 453 c 2,24,-1
 845 -166 l 1,25,-1
 1152 800 l 1,26,-1
 853 -187 l 2,27,28
 851 -191 851 -191 846 -191 c 0,29,30
 845 -191 845 -191 845 -191 c 2,31,32
 842 -190 842 -190 841 -187 c 2,33,-1
 579 422 l 1,0,-1
EndSplineSet
Validated: 1
EndChar

StartChar: X
Encoding: 88 88 26
Width: 1062
Flags: W
LayerCount: 2
Fore
SplineSet
474 286 m 1,0,-1
 18 -190 l 1,1,-1
 459 301 l 1,2,-1
 14 765 l 2,3,4
 9 770 9 770 9 778 c 0,5,6
 9 787 9 787 15 793 c 128,-1,7
 21 799 21 799 30 799 c 0,8,9
 38 799 38 799 44 794 c 1,10,-1
 44 793 l 1,11,-1
 473 317 l 1,12,-1
 901 793 l 2,13,14
 907 800 907 800 916 800 c 0,15,16
 924 800 924 800 930 795 c 0,17,18
 937 788 937 788 937 779 c 0,19,20
 937 771 937 771 932 765 c 2,21,-1
 488 301 l 1,22,-1
 939 -200 l 1,23,-1
 474 286 l 1,0,-1
EndSplineSet
Validated: 1
EndChar

StartChar: Y
Encoding: 89 89 27
Width: 774
Flags: W
LayerCount: 2
Fore
SplineSet
301 403 m 1,0,-1
 11 707 l 2,1,2
 6 713 6 713 6 721 c 0,3,4
 6 730 6 730 12 736 c 128,-1,5
 18 742 18 742 26 742 c 0,6,7
 35 742 35 742 41 736 c 2,8,-1
 42 735 l 1,9,-1
 300 440 l 1,10,-1
 299 451 l 2,11,12
 299 457 299 457 302 461.5 c 128,-1,13
 305 466 305 466 309.5 469 c 128,-1,14
 314 472 314 472 319.5 472 c 128,-1,15
 325 472 325 472 330 469 c 128,-1,16
 335 466 335 466 337.5 461.5 c 128,-1,17
 340 457 340 457 341 452 c 2,18,-1
 341 450 l 1,19,-1
 340 441 l 1,20,-1
 657 800 l 1,21,-1
 339 408 l 1,22,-1
 316 -200 l 1,23,-1
 301 403 l 1,0,-1
EndSplineSet
Validated: 1
EndChar

StartChar: Z
Encoding: 90 90 28
Width: 896
Flags: W
LayerCount: 2
Fore
SplineSet
2 427 m 1,0,-1
 677 797 l 2,1,2
 682 800 682 800 687 800 c 256,3,4
 692 800 692 800 697 798 c 0,5,6
 698 797 698 797 698.5 796.5 c 128,-1,7
 699 796 699 796 700 796 c 0,8,9
 705 792 705 792 707 789 c 0,10,11
 709 784 709 784 709 778 c 0,12,13
 709 775 709 775 708 772 c 256,14,15
 707 769 707 769 706 766 c 2,16,-1
 118 -169 l 1,17,-1
 760 150 l 1,18,-1
 98 -199 l 2,19,20
 96 -200 96 -200 94 -200 c 0,21,22
 89 -200 89 -200 86 -195 c 0,23,24
 85 -193 85 -193 85 -191 c 128,-1,25
 85 -189 85 -189 86 -187 c 2,26,-1
 632 728 l 1,27,-1
 2 427 l 1,0,-1
EndSplineSet
Validated: 1
EndChar

StartChar: a
Encoding: 97 97 29
Width: 1080
Flags: W
LayerCount: 2
Fore
SplineSet
229 193 m 1,0,-1
 51 -187 l 2,1,2
 45 -200 45 -200 31 -200 c 0,3,4
 26 -200 26 -200 22 -198 c 0,5,6
 9 -192 9 -192 9 -178 c 0,7,8
 9 -173 9 -173 11 -169 c 2,9,-1
 11 -168 l 1,10,-1
 174 160 l 1,11,-1
 71 98 l 1,12,-1
 180 173 l 1,13,-1
 480 779 l 1,14,-1
 491 801 l 1,15,-1
 500 779 l 1,16,-1
 632 482 l 1,17,-1
 669 506 l 2,18,19
 674 510 674 510 681 510 c 0,20,21
 690 510 690 510 696.5 503.5 c 128,-1,22
 703 497 703 497 703 488 c 0,23,24
 703 476 703 476 693 469 c 1,25,-1
 692 469 l 1,26,-1
 649 443 l 1,27,-1
 930 -188 l 1,28,-1
 637 436 l 1,29,-1
 229 193 l 1,0,-1
239 213 m 1,30,-1
 619 473 l 1,31,-1
 490 748 l 1,32,-1
 239 213 l 1,30,-1
EndSplineSet
EndChar

StartChar: b
Encoding: 98 98 30
Width: 812
Flags: W
LayerCount: 2
Fore
SplineSet
308 90 m 1,0,-1
 639 377 l 1,1,-1
 677 412 l 1,2,-1
 658 362 l 1,3,-1
 435 -186 l 2,4,5
 430 -196 430 -196 420 -196 c 0,6,7
 416 -196 416 -196 412 -193.5 c 128,-1,8
 408 -191 408 -191 406 -187.5 c 128,-1,9
 404 -184 404 -184 404 -179 c 0,10,11
 404 -177 404 -177 405 -174 c 2,12,-1
 404 -173 l 1,13,-1
 410 -158 l 1,14,-1
 293 53 l 1,15,-1
 273 37 l 1,16,-1
 281 66 l 1,17,-1
 283 72 l 1,18,-1
 26 535 l 1,19,-1
 -81 475 l 1,20,-1
 26 536 l 1,21,-1
 9 566 l 2,22,23
 7 569 7 569 7 574 c 0,24,25
 7 583 7 583 16 588 c 0,26,27
 19 590 19 590 24 590 c 0,28,29
 33 590 33 590 38 582 c 1,30,-1
 38 581 l 1,31,-1
 53 552 l 1,32,-1
 487 799 l 1,33,-1
 496 804 l 1,34,-1
 493 794 l 1,35,-1
 308 90 l 1,0,-1
481 786 m 1,36,-1
 54 550 l 1,37,-1
 287 87 l 1,38,-1
 481 786 l 1,36,-1
614 324 m 1,39,-1
 301 60 l 1,40,-1
 411 -157 l 1,41,-1
 614 324 l 1,39,-1
EndSplineSet
EndChar

StartChar: c
Encoding: 99 99 31
Width: 1204
Flags: W
LayerCount: 2
Fore
SplineSet
45 801 m 1,0,-1
 537 432 l 1,1,-1
 54 746 l 1,2,-1
 100 -164 l 1,3,-1
 1042 464 l 1,4,-1
 96 -193 l 2,5,6
 93 -195 93 -195 90 -195 c 0,7,8
 84 -195 84 -195 81 -190 c 0,9,10
 79 -188 79 -188 79 -185 c 2,11,12
 79 -185 79 -185 12 781 c 0,13,14
 11 783 11 783 11 786 c 0,15,16
 11 794 11 794 17 800 c 128,-1,17
 23 806 23 806 31 806 c 0,18,19
 38 806 38 806 44 802 c 2,20,-1
 45 801 l 1,0,-1
EndSplineSet
EndChar

StartChar: d
Encoding: 100 100 32
Width: 926
Flags: W
LayerCount: 2
Fore
SplineSet
46 746 m 1,0,-1
 51 -200 l 1,1,-1
 4 778 l 2,2,3
 4 779 4 779 4 779 c 2,4,5
 4 788 4 788 10 794 c 128,-1,6
 16 800 16 800 25 800 c 0,7,8
 31 800 31 800 36 796 c 2,9,-1
 786 435 l 2,10,11
 793 432 793 432 793 425 c 0,12,13
 793 423 793 423 792 420.5 c 128,-1,14
 791 418 791 418 789 417 c 2,15,-1
 51 -201 l 1,16,-1
 761 424 l 1,17,-1
 46 746 l 1,0,-1
EndSplineSet
EndChar

StartChar: e
Encoding: 101 101 33
Width: 1156
Flags: W
LayerCount: 2
Fore
SplineSet
14 769 m 2,0,1
 12 773 12 773 12 778 c 0,2,3
 12 787 12 787 18.5 793.5 c 128,-1,4
 25 800 25 800 35 800 c 0,5,6
 41 800 41 800 46 797 c 2,7,-1
 611 435 l 1,8,-1
 61 738 l 1,9,-1
 88 444 l 1,10,-1
 570 122 l 1,11,-1
 93 393 l 1,12,-1
 145 -174 l 1,13,-1
 1006 133 l 1,14,-1
 139 -201 l 2,15,16
 137 -202 137 -202 135 -202 c 0,17,18
 128 -202 128 -202 125 -195 c 0,19,20
 125 -194 125 -194 125 -193.5 c 128,-1,21
 125 -193 125 -193 125 -193 c 1,22,-1
 55 414 l 1,23,-1
 26 431 l 2,24,25
 15 437 15 437 15 450 c 0,26,27
 15 456 15 456 18 462 c 0,28,29
 24 473 24 473 37 473 c 0,30,31
 43 473 43 473 48 470 c 0,32,33
 49 469 49 469 49 469 c 1,34,-1
 14 769 l 2,0,1
EndSplineSet
EndChar

StartChar: f
Encoding: 102 102 34
Width: 730
Flags: W
LayerCount: 2
Fore
SplineSet
56 737 m 1,0,-1
 612 431 l 1,1,-1
 42 797 l 1,2,-1
 41 797 l 2,3,4
 36 800 36 800 30 800 c 0,5,6
 21 800 21 800 15 794 c 0,7,8
 12 791 12 791 10 788 c 0,9,10
 7 783 7 783 7 777 c 0,11,12
 7 774 7 774 8 770 c 2,13,-1
 47 465 l 1,14,-1
 45 466 l 1,15,-1
 44 466 l 2,16,17
 39 469 39 469 33 469 c 0,18,19
 20 469 20 469 14 458 c 0,20,21
 11 452 11 452 11 447 c 0,22,23
 11 434 11 434 22 427 c 2,24,-1
 54 409 l 1,25,-1
 131 -200 l 1,26,-1
 84 392 l 1,27,-1
 571 114 l 1,28,-1
 80 443 l 1,29,-1
 56 737 l 1,0,-1
EndSplineSet
EndChar

StartChar: g
Encoding: 103 103 35
Width: 1240
Flags: W
LayerCount: 2
Fore
SplineSet
1016 421 m 1,0,-1
 343 142 l 1,1,-1
 1060 450 l 1,2,-1
 1062 452 l 1,3,-1
 1062 451 l 1,4,-1
 1063 452 l 2,5,6
 1064 452 1064 452 1065 452 c 0,7,8
 1068 452 1068 452 1070 449 c 0,9,10
 1070 448 1070 448 1070 447 c 0,11,12
 1070 444 1070 444 1068 442 c 2,13,-1
 139 -198 l 2,14,15
 136 -200 136 -200 132 -200 c 0,16,17
 125 -200 125 -200 121 -194 c 0,18,19
 119 -192 119 -192 119 -188 c 2,20,-1
 10 774 l 2,21,22
 9 777 9 777 9 780 c 0,23,24
 9 788 9 788 15 794 c 128,-1,25
 21 800 21 800 29 800 c 0,26,27
 35 800 35 800 40 796 c 2,28,-1
 523 417 l 1,29,-1
 54 739 l 1,30,-1
 143 -164 l 1,31,-1
 1016 421 l 1,0,-1
EndSplineSet
EndChar

StartChar: h
Encoding: 104 104 36
Width: 824
Flags: W
LayerCount: 2
Fore
SplineSet
594 408 m 1,0,-1
 34 122 l 1,1,-1
 27 -200 l 1,2,-1
 19 115 l 1,3,-1
 -154 26 l 1,4,-1
 19 125 l 1,5,-1
 2 777 l 2,6,7
 2 786 2 786 8.5 793 c 128,-1,8
 15 800 15 800 24.5 800 c 128,-1,9
 34 800 34 800 40.5 793 c 128,-1,10
 47 786 47 786 47 777 c 2,11,-1
 34 134 l 1,12,-1
 593 454 l 1,13,-1
 585 777 l 2,14,15
 585 786 585 786 591.5 793 c 128,-1,16
 598 800 598 800 607.5 800 c 128,-1,17
 617 800 617 800 623.5 793 c 128,-1,18
 630 786 630 786 630 777 c 2,19,-1
 623 471 l 1,20,-1
 649 486 l 2,21,22
 654 489 654 489 660 489 c 0,23,24
 670 489 670 489 676.5 482.5 c 128,-1,25
 683 476 683 476 683 467 c 0,26,27
 683 454 683 454 672 447 c 1,28,-1
 670 447 l 1,29,-1
 622 423 l 1,30,-1
 610 -200 l 1,31,-1
 594 408 l 1,0,-1
EndSplineSet
EndChar

StartChar: i
Encoding: 105 105 37
Width: 774
Flags: W
LayerCount: 2
Fore
SplineSet
335 30 m 1,0,-1
 331 -128 l 1,1,-1
 327 37 l 1,2,-1
 12 292 l 2,3,4
 6 298 6 298 6 306 c 0,5,6
 6 313 6 313 11 318 c 128,-1,7
 16 323 16 323 23 323 c 0,8,9
 29 323 29 323 34 319 c 1,10,-1
 35 319 l 1,11,-1
 326 59 l 1,12,-1
 314 532 l 1,13,-1
 28 769 l 2,14,15
 22 774 22 774 22 782 c 0,16,17
 22 787 22 787 24 791 c 128,-1,18
 26 795 26 795 30 797 c 128,-1,19
 34 799 34 799 39 799 c 0,20,21
 45 799 45 799 50 795 c 2,22,-1
 313 557 l 1,23,-1
 312 580 l 1,24,-1
 312 581 l 2,25,26
 312 588 312 588 317 593 c 128,-1,27
 322 598 322 598 330 598 c 0,28,29
 336 598 336 598 341 593 c 128,-1,30
 346 588 346 588 347 581 c 2,31,-1
 347 580 l 1,32,-1
 345 528 l 1,33,-1
 639 262 l 1,34,-1
 345 506 l 1,35,-1
 335 52 l 1,36,-1
 618 -200 l 1,37,-1
 335 30 l 1,0,-1
EndSplineSet
EndChar

StartChar: j
Encoding: 106 106 38
Width: 900
Flags: W
LayerCount: 2
Fore
SplineSet
357 514 m 1,0,-1
 357 531 l 2,1,2
 357 541 357 541 363.5 547.5 c 128,-1,3
 370 554 370 554 379 554 c 128,-1,4
 388 554 388 554 395 547.5 c 128,-1,5
 402 541 402 541 402 531 c 2,6,-1
 401 474 l 1,7,-1
 768 144 l 1,8,-1
 401 445 l 1,9,-1
 391 -190 l 2,10,11
 391 -200 391 -200 381 -200 c 0,12,13
 378 -200 378 -200 375 -198 c 2,14,-1
 -44 151 l 1,15,-1
 371 -170 l 1,16,-1
 358 480 l 1,17,-1
 17 760 l 2,18,19
 8 767 8 767 8 778 c 0,20,21
 8 788 8 788 14.5 794.5 c 128,-1,22
 21 801 21 801 30 801 c 256,23,24
 39 801 39 801 46 795 c 1,25,-1
 46 794 l 1,26,-1
 357 514 l 1,0,-1
EndSplineSet
EndChar

StartChar: k
Encoding: 107 107 39
Width: 894
Flags: W
LayerCount: 2
Fore
SplineSet
40 485 m 1,0,-1
 540 796 l 2,1,2
 546 800 546 800 552 800 c 0,3,4
 561 800 561 800 568 793.5 c 128,-1,5
 575 787 575 787 575 777 c 0,6,7
 575 765 575 765 564 758 c 2,8,-1
 39 451 l 1,9,-1
 39 426 l 1,10,-1
 780 -200 l 1,11,-1
 38 393 l 1,12,-1
 24 -200 l 1,13,-1
 10 415 l 1,14,-1
 -11 432 l 2,15,16
 -16 436 -16 436 -16 443 c 0,17,18
 -16 447 -16 447 -13 451 c 0,19,20
 -12 453 -12 453 -10 454 c 2,21,-1
 9 466 l 1,22,-1
 2 776 l 2,23,24
 2 786 2 786 8.5 792.5 c 128,-1,25
 15 799 15 799 24.5 799 c 128,-1,26
 34 799 34 799 40.5 792.5 c 128,-1,27
 47 786 47 786 47 776 c 2,28,-1
 40 485 l 1,0,-1
EndSplineSet
EndChar

StartChar: l
Encoding: 108 108 40
Width: 820
Flags: W
LayerCount: 2
Fore
SplineSet
50 -174 m 1,0,-1
 680 172 l 1,1,-1
 45 -199 l 2,2,3
 43 -200 43 -200 41 -200 c 0,4,5
 35 -200 35 -200 32 -195 c 0,6,7
 31 -193 31 -193 31 -191 c 2,8,-1
 6 777 l 2,9,10
 6 786 6 786 12.5 792.5 c 128,-1,11
 19 799 19 799 28.5 799 c 128,-1,12
 38 799 38 799 44.5 792.5 c 128,-1,13
 51 786 51 786 51 777 c 1,14,-1
 50 778 l 1,15,-1
 50 -174 l 1,0,-1
EndSplineSet
EndChar

StartChar: m
Encoding: 109 109 41
Width: 872
Flags: W
LayerCount: 2
Fore
SplineSet
732 678 m 1,0,-1
 712 -200 l 1,1,-1
 693 643 l 1,2,-1
 387 72 l 2,3,4
 384 66 384 66 377 66 c 0,5,6
 374 66 374 66 372 68 c 0,7,8
 369 69 369 69 368 72 c 2,9,-1
 41 608 l 1,10,-1
 22 -199 l 1,11,-1
 2 676 l 2,12,13
 2 685 2 685 8 691 c 128,-1,14
 14 697 14 697 22 697 c 0,15,16
 34 697 34 697 39 687 c 1,17,-1
 40 687 l 1,18,-1
 377 101 l 1,19,-1
 692 653 l 1,20,-1
 692 678 l 2,21,22
 692 686 692 686 698 692 c 128,-1,23
 704 698 704 698 712 698 c 0,24,25
 715 698 715 698 718 697 c 2,26,-1
 777 801 l 1,27,-1
 721 696 l 1,28,29
 732 691 732 691 732 679 c 2,30,-1
 732 678 l 1,0,-1
EndSplineSet
EndChar

StartChar: n
Encoding: 110 110 42
Width: 794
Flags: W
LayerCount: 2
Fore
SplineSet
4 764 m 2,0,1
 4 773 4 773 10.5 779 c 128,-1,2
 17 785 17 785 26 785 c 0,3,4
 40 785 40 785 46 772 c 2,5,-1
 619 -146 l 1,6,-1
 653 800 l 1,7,-1
 638 -180 l 2,8,9
 638 -190 638 -190 628 -190 c 0,10,11
 622 -190 622 -190 620 -185 c 2,12,-1
 45 694 l 1,13,-1
 11 -200 l 1,14,-1
 4 762 l 2,15,16
 4 763 4 763 4 763.5 c 128,-1,17
 4 764 4 764 4 764 c 2,0,1
EndSplineSet
EndChar

StartChar: o
Encoding: 111 111 43
Width: 1194
Flags: W
LayerCount: 2
Fore
SplineSet
457 793 m 1,0,-1
 1025 157 l 1,1,-1
 448 741 l 1,2,-1
 38 -171 l 1,3,-1
 1022 157 l 1,4,-1
 21 -199 l 2,5,6
 19 -200 19 -200 17 -200 c 0,7,8
 10 -200 10 -200 7 -193 c 0,9,10
 6 -191 6 -191 6 -189 c 128,-1,11
 6 -187 6 -187 7 -185 c 2,12,-1
 419 786 l 2,13,14
 420 789 420 789 421 791 c 0,15,16
 428 801 428 801 440 801 c 0,17,18
 450 801 450 801 456 794 c 2,19,-1
 457 793 l 1,0,-1
EndSplineSet
EndChar

StartChar: p
Encoding: 112 112 44
Width: 692
Flags: W
LayerCount: 2
Fore
SplineSet
10 594 m 0,0,1
 13 598 13 598 18 599 c 2,2,-1
 548 799 l 2,3,4
 550 800 550 800 552 800 c 0,5,6
 559 800 559 800 561 793 c 0,7,8
 562 792 562 792 562 790 c 0,9,10
 562 786 562 786 560 783 c 2,11,-1
 38 146 l 1,12,-1
 39 -200 l 1,13,-1
 25 130 l 1,14,-1
 -82 -1 l 1,15,-1
 25 135 l 1,16,-1
 6 578 l 2,17,18
 5 580 5 580 5 583 c 0,19,20
 5 589 5 589 10 594 c 0,0,1
38 573 m 1,21,-1
 38 152 l 1,22,-1
 520 766 l 1,23,-1
 38 573 l 1,21,-1
EndSplineSet
EndChar

StartChar: q
Encoding: 113 113 45
Width: 1044
Flags: W
LayerCount: 2
Fore
SplineSet
335 786 m 1,0,-1
 909 153 l 1,1,-1
 909 153 l 1,2,-1
 909 153 l 1,3,-1
 620 55 l 1,4,-1
 870 -200 l 1,5,-1
 592 46 l 1,6,-1
 15 -150 l 2,7,8
 14 -150 14 -150 12 -150 c 0,9,10
 5 -150 5 -150 3 -144 c 0,11,12
 2 -142 2 -142 2 -140.5 c 128,-1,13
 2 -139 2 -139 3 -137 c 2,14,-1
 293 778 l 2,15,16
 293 779 293 779 293 780 c 0,17,18
 293 792 293 792 303 798 c 0,19,20
 309 801 309 801 315 801 c 0,21,22
 331 801 331 801 335 786 c 1,0,-1
909 153 m 1,23,-1
 322 742 l 1,24,-1
 28 -125 l 1,25,-1
 586 51 l 1,26,-1
 446 175 l 2,27,28
 439 181 439 181 439 190 c 0,29,30
 439 196 439 196 441.5 200.5 c 128,-1,31
 444 205 444 205 449 208 c 128,-1,32
 454 211 454 211 459 211 c 0,33,34
 467 211 467 211 473 205 c 0,35,36
 474 205 474 205 474 204 c 2,37,-1
 615 60 l 1,38,-1
 909 153 l 1,23,-1
EndSplineSet
EndChar

StartChar: r
Encoding: 114 114 46
Width: 700
Flags: W
LayerCount: 2
Fore
SplineSet
9 574 m 0,0,1
 12 585 12 585 23 586 c 2,2,-1
 547 800 l 2,3,4
 549 801 549 801 551 801 c 0,5,6
 559 801 559 801 562 793 c 0,7,8
 563 791 563 791 563 788 c 0,9,10
 563 783 563 783 559 779 c 2,11,-1
 32 322 l 1,12,-1
 31 305 l 1,13,-1
 624 -191 l 1,14,-1
 31 290 l 1,15,-1
 11 -200 l 1,16,-1
 10 307 l 1,17,-1
 8 308 l 2,18,19
 6 310 6 310 6 313 c 0,20,21
 6 315 6 315 7 317 c 2,22,-1
 9 318 l 1,23,-1
 9 567 l 2,24,25
 8 568 8 568 8 569 c 0,26,27
 8 572 8 572 9 574 c 0,0,1
41 558 m 1,28,-1
 33 339 l 1,29,-1
 489 748 l 1,30,-1
 41 558 l 1,28,-1
EndSplineSet
EndChar

StartChar: s
Encoding: 115 115 47
Width: 746
Flags: W
LayerCount: 2
Fore
SplineSet
612 45 m 1,0,-1
 9 503 l 2,1,2
 4 507 4 507 4 513 c 0,3,4
 4 517 4 517 7 520 c 0,5,6
 8 522 8 522 10 523 c 2,7,-1
 428 797 l 2,8,9
 432 799 432 799 437 799 c 0,10,11
 446 799 446 799 451 792 c 0,12,13
 454 788 454 788 454 783 c 0,14,15
 454 774 454 774 446 769 c 2,16,-1
 37 511 l 1,17,-1
 623 48 l 2,18,19
 624 47 624 47 624 45 c 128,-1,20
 624 43 624 43 623 42 c 256,21,22
 622 41 622 41 621 40 c 2,23,-1
 178 -200 l 1,24,-1
 612 45 l 1,0,-1
EndSplineSet
EndChar

StartChar: t
Encoding: 116 116 48
Width: 798
Flags: W
LayerCount: 2
Fore
SplineSet
311 565 m 1,0,-1
 310 577 l 2,1,2
 310 584 310 584 315.5 589 c 128,-1,3
 321 594 321 594 328 594 c 0,4,5
 332 594 332 594 336 591.5 c 128,-1,6
 340 589 340 589 342.5 585 c 128,-1,7
 345 581 345 581 345 577 c 2,8,-1
 345 576 l 1,9,-1
 344 537 l 1,10,-1
 669 261 l 1,11,-1
 343 515 l 1,12,-1
 320 -200 l 1,13,-1
 311 540 l 1,14,-1
 17 769 l 2,15,16
 10 774 10 774 10 783 c 0,17,18
 10 789 10 789 14 793 c 0,19,20
 19 800 19 800 27 800 c 0,21,22
 33 800 33 800 38 796 c 2,23,-1
 311 565 l 1,0,-1
EndSplineSet
EndChar

StartChar: u
Encoding: 117 117 49
Width: 676
Flags: W
LayerCount: 2
Fore
SplineSet
531 66 m 1,0,-1
 25 -199 l 2,1,2
 23 -199 23 -199 21 -199 c 0,3,4
 17 -199 17 -199 14 -196 c 0,5,6
 14 -195 14 -195 14 -194 c 128,-1,7
 14 -193 14 -193 14 -192 c 2,8,-1
 5 540 l 2,9,10
 5 547 5 547 10 552 c 128,-1,11
 15 557 15 557 22 557 c 128,-1,12
 29 557 29 557 34 552 c 128,-1,13
 39 547 39 547 39 540 c 1,14,-1
 38 539 l 1,15,-1
 29 -180 l 1,16,-1
 531 67 l 1,17,-1
 508 782 l 2,18,19
 508 783 508 783 508 783 c 2,20,21
 508 790 508 790 513 795 c 128,-1,22
 518 800 518 800 526 800 c 0,23,24
 532 800 532 800 537 795 c 128,-1,25
 542 790 542 790 543 784 c 2,26,-1
 543 783 l 1,27,-1
 534 -8 l 1,28,-1
 531 66 l 1,0,-1
EndSplineSet
EndChar

StartChar: v
Encoding: 118 118 50
Width: 1276
Flags: W
LayerCount: 2
Fore
SplineSet
558 -173 m 1,0,-1
 1129 830 l 1,1,-1
 568 -201 l 2,2,3
 565 -206 565 -206 558 -206 c 0,4,5
 556 -206 556 -206 553 -205 c 256,6,7
 550 -204 550 -204 549 -201 c 2,8,-1
 22 761 l 2,9,10
 19 766 19 766 19 772 c 0,11,12
 19 781 19 781 25.5 787.5 c 128,-1,13
 32 794 32 794 41 794 c 0,14,15
 54 794 54 794 60 783 c 1,16,-1
 60 782 l 1,17,-1
 558 -173 l 1,0,-1
EndSplineSet
EndChar

StartChar: w
Encoding: 119 119 51
Width: 1294
Flags: W
LayerCount: 2
Fore
SplineSet
579 422 m 1,0,-1
 329 -190 l 2,1,2
 325 -199 325 -199 315 -199 c 0,3,4
 312 -199 312 -199 310 -198 c 0,5,6
 303 -195 303 -195 301 -189 c 2,7,-1
 8 737 l 2,8,9
 7 740 7 740 7 743 c 0,10,11
 7 752 7 752 13 758 c 128,-1,12
 19 764 19 764 28 764 c 0,13,14
 43 764 43 764 48 750 c 1,15,-1
 47 749 l 1,16,-1
 318 -141 l 1,17,-1
 569 453 l 2,18,19
 571 460 571 460 578 460 c 0,20,21
 580 460 580 460 582 459 c 0,22,23
 586 457 586 457 588 453 c 2,24,-1
 845 -166 l 1,25,-1
 1152 800 l 1,26,-1
 853 -187 l 2,27,28
 851 -191 851 -191 846 -191 c 0,29,30
 845 -191 845 -191 845 -191 c 2,31,32
 842 -190 842 -190 841 -187 c 2,33,-1
 579 422 l 1,0,-1
EndSplineSet
EndChar

StartChar: x
Encoding: 120 120 52
Width: 1062
Flags: W
LayerCount: 2
Fore
SplineSet
474 286 m 1,0,-1
 18 -190 l 1,1,-1
 459 301 l 1,2,-1
 14 765 l 2,3,4
 9 770 9 770 9 778 c 0,5,6
 9 787 9 787 15 793 c 128,-1,7
 21 799 21 799 30 799 c 0,8,9
 38 799 38 799 44 794 c 1,10,-1
 44 793 l 1,11,-1
 473 317 l 1,12,-1
 901 793 l 2,13,14
 907 800 907 800 916 800 c 0,15,16
 924 800 924 800 930 795 c 0,17,18
 937 788 937 788 937 779 c 0,19,20
 937 771 937 771 932 765 c 2,21,-1
 488 301 l 1,22,-1
 939 -200 l 1,23,-1
 474 286 l 1,0,-1
EndSplineSet
EndChar

StartChar: y
Encoding: 121 121 53
Width: 774
Flags: W
LayerCount: 2
Fore
SplineSet
301 403 m 1,0,-1
 11 707 l 2,1,2
 6 713 6 713 6 721 c 0,3,4
 6 730 6 730 12 736 c 128,-1,5
 18 742 18 742 26 742 c 0,6,7
 35 742 35 742 41 736 c 2,8,-1
 42 735 l 1,9,-1
 300 440 l 1,10,-1
 299 451 l 2,11,12
 299 457 299 457 302 461.5 c 128,-1,13
 305 466 305 466 309.5 469 c 128,-1,14
 314 472 314 472 319.5 472 c 128,-1,15
 325 472 325 472 330 469 c 128,-1,16
 335 466 335 466 337.5 461.5 c 128,-1,17
 340 457 340 457 341 452 c 2,18,-1
 341 450 l 1,19,-1
 340 441 l 1,20,-1
 657 800 l 1,21,-1
 339 408 l 1,22,-1
 316 -200 l 1,23,-1
 301 403 l 1,0,-1
EndSplineSet
EndChar

StartChar: z
Encoding: 122 122 54
Width: 896
Flags: W
LayerCount: 2
Fore
SplineSet
2 427 m 1,0,-1
 677 797 l 2,1,2
 682 800 682 800 687 800 c 256,3,4
 692 800 692 800 697 798 c 0,5,6
 698 797 698 797 698.5 796.5 c 128,-1,7
 699 796 699 796 700 796 c 0,8,9
 705 792 705 792 707 789 c 0,10,11
 709 784 709 784 709 778 c 0,12,13
 709 775 709 775 708 772 c 256,14,15
 707 769 707 769 706 766 c 2,16,-1
 118 -169 l 1,17,-1
 760 150 l 1,18,-1
 98 -199 l 2,19,20
 96 -200 96 -200 94 -200 c 0,21,22
 89 -200 89 -200 86 -195 c 0,23,24
 85 -193 85 -193 85 -191 c 128,-1,25
 85 -189 85 -189 86 -187 c 2,26,-1
 632 728 l 1,27,-1
 2 427 l 1,0,-1
EndSplineSet
EndChar
